<?xml version="1.0" encoding="UTF-8" standalone="no"?>
<svg
   xmlns:dc="http://purl.org/dc/elements/1.1/"
   xmlns:cc="http://creativecommons.org/ns#"
   xmlns:rdf="http://www.w3.org/1999/02/22-rdf-syntax-ns#"
   xmlns:svg="http://www.w3.org/2000/svg"
   xmlns="http://www.w3.org/2000/svg"
   xmlns:sodipodi="http://sodipodi.sourceforge.net/DTD/sodipodi-0.dtd"
   xmlns:inkscape="http://www.inkscape.org/namespaces/inkscape"
   version="1.1"
   id="svg38"
   width="395"
   height="405"
   viewBox="0 0 395 405"
   sodipodi:docname="fb.svg"
   inkscape:version="1.0.1 (3bc2e813f5, 2020-09-07)">
  <metadata
     id="metadata44">
    <rdf:RDF>
      <cc:Work
         rdf:about="">
        <dc:format>image/svg+xml</dc:format>
        <dc:type
           rdf:resource="http://purl.org/dc/dcmitype/StillImage" />
        <dc:title />
      </cc:Work>
    </rdf:RDF>
  </metadata>
  <defs
     id="defs42">
    <inkscape:path-effect
       effect="skeletal"
       id="path-effect86"
       is_visible="true"
       lpeversion="1"
       pattern="M 0,5 C 0,2.24 2.24,0 5,0 7.76,0 10,2.24 10,5 10,7.76 7.76,10 5,10 2.24,10 0,7.76 0,5 Z"
       copytype="single_stretched"
       prop_scale="1"
       scale_y_rel="false"
       spacing="0"
       normal_offset="0"
       tang_offset="0"
       prop_units="false"
       vertical_pattern="false"
       hide_knot="false"
       fuse_tolerance="0" />
    <inkscape:path-effect
       effect="skeletal"
       id="path-effect82"
       is_visible="true"
       lpeversion="1"
       pattern="M 0,5 C 0,2.24 2.24,0 5,0 7.76,0 10,2.24 10,5 10,7.76 7.76,10 5,10 2.24,10 0,7.76 0,5 Z"
       copytype="single_stretched"
       prop_scale="1"
       scale_y_rel="false"
       spacing="0"
       normal_offset="0"
       tang_offset="0"
       prop_units="false"
       vertical_pattern="false"
       hide_knot="false"
       fuse_tolerance="0" />
    <inkscape:path-effect
       effect="skeletal"
       id="path-effect78"
       is_visible="true"
       lpeversion="1"
       pattern="M 0,5 C 0,2.24 2.24,0 5,0 7.76,0 10,2.24 10,5 10,7.76 7.76,10 5,10 2.24,10 0,7.76 0,5 Z"
       copytype="single_stretched"
       prop_scale="1"
       scale_y_rel="false"
       spacing="0"
       normal_offset="0"
       tang_offset="0"
       prop_units="false"
       vertical_pattern="false"
       hide_knot="false"
       fuse_tolerance="0" />
    <inkscape:path-effect
       effect="skeletal"
       id="path-effect74"
       is_visible="true"
       lpeversion="1"
       pattern="M 0,5 C 0,2.24 2.24,0 5,0 7.76,0 10,2.24 10,5 10,7.76 7.76,10 5,10 2.24,10 0,7.76 0,5 Z"
       copytype="single_stretched"
       prop_scale="1"
       scale_y_rel="false"
       spacing="0"
       normal_offset="0"
       tang_offset="0"
       prop_units="false"
       vertical_pattern="false"
       hide_knot="false"
       fuse_tolerance="0" />
    <inkscape:path-effect
       effect="skeletal"
       id="path-effect70"
       is_visible="true"
       lpeversion="1"
       pattern="M 0,5 C 0,2.24 2.24,0 5,0 7.76,0 10,2.24 10,5 10,7.76 7.76,10 5,10 2.24,10 0,7.76 0,5 Z"
       copytype="single_stretched"
       prop_scale="1"
       scale_y_rel="false"
       spacing="0"
       normal_offset="0"
       tang_offset="0"
       prop_units="false"
       vertical_pattern="false"
       hide_knot="false"
       fuse_tolerance="0" />
    <inkscape:path-effect
       effect="spiro"
       id="path-effect68"
       is_visible="true"
       lpeversion="1" />
    <inkscape:path-effect
       effect="skeletal"
       id="path-effect64"
       is_visible="true"
       lpeversion="1"
       pattern="M 0,5 C 0,2.24 2.24,0 5,0 7.76,0 10,2.24 10,5 10,7.76 7.76,10 5,10 2.24,10 0,7.76 0,5 Z"
       copytype="single_stretched"
       prop_scale="1"
       scale_y_rel="false"
       spacing="0"
       normal_offset="0"
       tang_offset="0"
       prop_units="false"
       vertical_pattern="false"
       hide_knot="false"
       fuse_tolerance="0" />
    <inkscape:path-effect
       effect="skeletal"
       id="path-effect58"
       is_visible="true"
       lpeversion="1"
       pattern="M 0,5 C 0,2.24 2.24,0 5,0 7.76,0 10,2.24 10,5 10,7.76 7.76,10 5,10 2.24,10 0,7.76 0,5 Z"
       copytype="single_stretched"
       prop_scale="1"
       scale_y_rel="false"
       spacing="0"
       normal_offset="0"
       tang_offset="0"
       prop_units="false"
       vertical_pattern="false"
       hide_knot="false"
       fuse_tolerance="0" />
  </defs>
  <sodipodi:namedview
     pagecolor="#ffffff"
     bordercolor="#666666"
     borderopacity="1"
     objecttolerance="10"
     gridtolerance="10"
     guidetolerance="10"
     inkscape:pageopacity="0"
     inkscape:pageshadow="2"
     inkscape:window-width="1920"
     inkscape:window-height="1046"
     id="namedview40"
     showgrid="false"
     inkscape:pagecheckerboard="true"
     units="mm"
     inkscape:zoom="1.5015107"
     inkscape:cx="208.82654"
     inkscape:cy="233.85961"
     inkscape:window-x="-11"
     inkscape:window-y="-11"
     inkscape:window-maximized="1"
     inkscape:current-layer="g46"
     inkscape:document-rotation="0" />
  <g
     inkscape:groupmode="layer"
     inkscape:label="Image"
     id="g46">
    <path
       style="fill:#000000;stroke:none;stroke-width:1px;stroke-linecap:butt;stroke-linejoin:miter;stroke-opacity:1"
       d="M 11.275783,223.53907 C 10.827074,223.57761 9.4476906,216.58319 9.3762631,203.28625 9.3063669,190.27438 10.770048,170.04009 18.385831,146.42583 25.117506,125.5408 37.047325,101.01594 57.097822,78.586788 73.168583,60.62265 94.518889,44.107752 120.42174,32.350781 c 22.62943,-10.278588 48.83502,-16.953427 76.69183,-17.298516 0,9e-6 4e-5,0 4e-5,0 25.42956,-0.303026 51.93053,4.710131 77.23203,15.456728 23.62334,10.024936 46.13454,25.047949 64.84413,44.886439 17.8032,18.897154 31.9241,41.939808 41.00929,67.430948 5.48508,15.37359 9.12443,31.61181 10.61225,48.22123 0.89712,10.0151 1.0006,20.04036 0.30007,29.96529 -1.34512,18.98092 -5.50123,37.48733 -12.08299,54.79896 -16.11544,42.36062 -46.60595,76.42749 -82.17018,97.37191 0,0 -4e-5,1e-5 -4e-5,1e-5 -40.10461,23.5983 -85.35063,30.24757 -124.73968,24.54206 C 123.31487,390.64034 84.710427,365.61671 59.960527,338.97941 32.628762,309.54875 20.665694,277.56678 15.563308,256.96796 10.28989,235.67867 10.69425,223.58902 11.275783,223.53907 c 0.581533,-0.0499 1.32096,11.90632 7.499748,32.55164 5.979065,19.97798 18.653279,50.77661 45.672347,78.6312 24.454909,25.22407 62.071672,48.66927 108.801582,54.87471 37.69009,5.01812 80.91017,-1.77776 118.84318,-24.45012 10e-6,-2e-5 2e-5,-2e-5 4e-5,-3e-5 33.64163,-20.08961 62.53543,-52.69618 77.67859,-92.84179 6.20218,-16.43123 10.11735,-34.00155 11.37685,-51.99366 0.65971,-9.38392 0.55736,-18.87699 -0.29507,-28.37033 -1.41366,-15.74355 -4.86072,-31.16522 -10.04424,-45.77286 -8.60238,-24.21506 -21.94743,-46.1424 -38.74235,-64.081973 C 314.4367,63.23373 293.08369,48.836668 270.64929,39.142561 246.61087,28.764878 221.38502,23.773445 197.18115,23.851379 c 0,0 -4e-5,8e-6 -4e-5,8e-6 -26.51416,0.07224 -51.6777,6.184962 -73.51853,15.75896 C 98.664414,50.576774 77.87277,66.118768 62.088235,83.131786 42.379758,104.35806 30.240984,127.86466 23.076645,148.01434 c -8.092792,22.77351 -10.36043,42.53544 -11.097965,55.33923 -0.753985,13.08938 -0.254188,20.14696 -0.702897,20.1855 z"
       id="path66"
       inkscape:path-effect="#path-effect68;#path-effect70"
       inkscape:original-d="M 11.275783,223.53907 C -109.76657,206.69833 261.17943,221.622 386.12975,220.66196 c 124.95033,-0.96003 -7.81894,35.59854 -11.72992,53.39631 -3.91097,17.79776 -363.124047,-50.5192 -363.124047,-50.5192 z" />
    <path
       style="fill:none;stroke:#000000;stroke-width:1px;stroke-linecap:butt;stroke-linejoin:miter;stroke-opacity:1"
       d="m 170.05917,165.45174 c -0.74255,-2.84312 -2.31093,-30.0173 -0.21932,-37.7532 2.31448,-8.56019 10.61515,-34.389575 39.46169,-34.955933 28.84654,-0.566359 43.00551,0.509722 43.00551,0.509722 l -0.60412,37.651531 -22.61659,-0.13593 c 0,0 -12.03198,0.22655 -12.19559,16.27715 -0.16362,16.05061 -0.41533,18.23675 -0.41533,18.23675 l 33.75498,-0.31716 -3.5366,40.80049 c 0,0 -30.02959,-1.67643 -29.58909,0.2945 0.4405,1.97093 -0.3524,112.76203 -0.3524,112.76203 l -47.24691,0.33981 -0.91876,-113.06786 -21.723,-0.6683 0.18878,-38.82955 z"
       id="path88"
       sodipodi:nodetypes="csscccscccscccccc" />
    <path
       style="fill:#265295;fill-opacity:1;stroke:#000000;stroke-width:1.81864"
       d="M 185.81386,390.68434 C 169.66815,389.28053 159.54191,387.48713 146.5201,383.72525 120.7018,376.26657 96.261796,362.91531 75.68463,345.02879 70.29916,340.34751 60.437672,330.3375 56.035149,325.08337 33.633108,298.34795 19.448509,267.07434 12.630267,229.38609 l -1.054256,-5.82746 0.200572,-9.32394 c 0.276468,-12.85212 1.032096,-21.7114 2.740807,-32.13431 4.416796,-26.94185 14.413324,-52.60346 29.367964,-75.38911 14.437944,-21.998389 34.711836,-41.46829 57.540376,-55.258537 34.00891,-20.544074 72.65746,-29.9287 110.52847,-26.838482 38.73178,3.160455 76.59683,19.014861 106.20106,44.46725 36.28184,31.193509 59.13353,77.171399 62.79228,126.338799 0.43419,5.83507 0.43036,19.61605 -0.007,25.32453 -3.85605,50.32206 -27.72534,96.28611 -66.7559,128.54879 -22.95,18.9705 -51.04643,32.21543 -80.752,38.06727 -12.86125,2.53362 -20.04836,3.23328 -34.46529,3.35519 -6.41021,0.0542 -12.32925,0.0399 -13.15342,-0.0316 z m 31.5636,-71.20658 c 0.0552,-0.0552 0.19323,-25.52451 0.3067,-56.59843 0.13896,-38.04952 0.31792,-56.56702 0.54806,-56.70925 0.69765,-0.43117 10.98833,-0.49432 19.82266,-0.12165 5.01477,0.21155 9.15419,0.34181 9.19869,0.28947 0.0445,-0.0523 0.88985,-9.46073 1.87857,-20.90754 l 1.79766,-20.81237 -16.85556,-0.0862 -16.85555,-0.0862 0.11205,-4.90873 c 0.40311,-17.66079 0.44963,-18.12593 2.14523,-21.44957 1.06236,-2.08241 3.50393,-4.49167 5.59018,-5.51621 l 1.87296,-0.9198 12.69823,-0.0979 12.69824,-0.0979 0.20402,-14.22098 c 0.11221,-7.82154 0.28719,-16.56497 0.38885,-19.429851 l 0.18482,-5.208864 -5.26163,-0.284969 c -2.89389,-0.156732 -13.4284,-0.272879 -23.41001,-0.258104 -20.0392,0.02967 -21.80791,0.167578 -27.79107,2.167005 -10.03814,3.354498 -18.08171,10.968183 -23.33835,22.091043 -1.97313,4.17508 -2.91853,10.51757 -3.7308,13.93125 -0.85048,3.57428 -1.36107,23.67883 -0.79663,29.83842 0.22446,2.44928 0.33681,4.52455 0.24965,4.6117 -0.0871,0.0871 -5.15107,0.40585 -11.25316,0.70823 l -11.09471,0.54977 -0.21041,4.49547 c -0.11572,2.47251 -0.22811,11.48481 -0.24975,20.02734 l -0.0393,15.53186 5.91072,0.20744 c 3.25089,0.1141 8.10445,0.29622 10.78568,0.40472 l 4.87497,0.19727 0.19707,8.70527 c 0.10839,4.7879 0.27535,21.51737 0.37102,37.1766 0.0957,15.65923 0.2703,37.16257 0.38807,47.78521 l 0.21412,19.31388 24.17416,-0.10845 c 13.29579,-0.0597 24.21934,-0.15363 24.27455,-0.20883 z"
       id="path130"
       sodipodi:nodetypes="csssscssssssscssscccssssscccssscccsscsssssssscsscsscssscccc" />
    <g
       id="g2329"
       style="stroke-width:2.2;stroke-miterlimit:4;stroke-dasharray:none"
       transform="translate(-0.38295,0.52791)">
      <g
         id="g2711"
         style="stroke-width:2.2;stroke-miterlimit:4;stroke-dasharray:none">
        <path
           style="fill:#ffffff;fill-opacity:1;stroke:#000000;stroke-width:2.2;stroke-miterlimit:4;stroke-dasharray:none"
           d="m 169.08326,302.09299 c -0.11604,-9.58935 -0.36325,-34.95143 -0.54936,-56.36019 -0.18611,-21.40875 -0.40418,-39.03148 -0.48461,-39.16161 -0.0804,-0.13014 -3.03558,-0.33543 -6.56701,-0.45621 -3.53143,-0.12077 -8.33135,-0.31375 -10.6665,-0.42884 l -4.24573,-0.20925 v -15.21777 c 0,-8.36978 0.0973,-17.68543 0.21628,-20.70146 l 0.21627,-5.48369 10.99926,-0.56806 c 6.04959,-0.31243 11.05464,-0.62344 11.12232,-0.69112 0.0677,-0.0677 -0.0517,-4.29885 -0.26538,-9.40259 -0.20783,-20.10425 4.38571,-49.42976 24.70998,-59.38084 5.65473,-2.695538 8.71487,-3.326794 18.10238,-3.734222 7.85487,-0.340911 35.62479,-0.146768 40.72958,0.284745 l 2.48271,0.209866 -0.20882,9.021571 c -0.11486,4.96186 -0.30511,13.98286 -0.42278,20.04666 l -0.21394,11.0251 -13.19143,0.23222 c -6.06831,0.18424 -10.61969,-1.32487 -15.02291,1.34112 -2.30225,1.39392 -4.37922,3.88697 -5.30935,6.37296 -0.79652,2.12889 -1.32313,9.53876 -1.34113,18.87095 l -0.009,4.91172 h 16.8164 c 9.24902,0 16.81639,0.0411 16.81639,0.0913 0,0.0502 -0.74735,8.64885 -1.66078,19.10812 -1.6601,19.00902 -2.11434,23.3145 -2.50049,23.70065 -0.24313,0.24313 -3.00533,0.25647 -17.57214,0.0848 -6.00104,-0.0707 -10.99013,-0.0494 -11.08686,0.0473 -0.0967,0.0967 -0.3189,24.35741 -0.4937,53.91262 -0.17481,29.55521 -0.4135,54.95998 -0.53043,56.45504 l -0.21259,2.7183 -3.36763,0.18977 c -1.85219,0.10438 -12.97735,0.28346 -24.72258,0.39797 l -21.35495,0.2082 z m 48.33974,15.21873 c 0.0597,-0.0597 0.20049,-25.45842 0.31281,-56.44155 l 0.20423,-56.33296 0.69044,-0.36952 c 1.05237,-0.56321 11.01027,-0.71176 20.32379,-0.30318 4.56624,0.20032 8.3464,0.32006 8.40036,0.2661 0.10638,-0.10638 3.44379,-38.0988 3.44379,-39.20346 0,-0.66573 -0.14463,-0.6707 -16.78986,-0.57656 l -16.78987,0.095 0.14365,-6.82645 c 0.33757,-16.04157 0.48757,-17.41349 2.31689,-21.19079 1.07994,-2.22993 3.47062,-4.59136 5.97339,-5.90028 4.24222,-2.2194 9.67292,-1.10824 14.36788,-1.14556 l 12.36544,-0.0983 0.20215,-13.22166 c 0.11118,-7.27191 0.27386,-15.56696 0.36152,-18.433435 l 0.15938,-5.211776 -4.23552,-0.274704 c -2.32953,-0.151087 -12.62706,-0.269175 -22.8834,-0.262417 -16.47656,0.01086 -19.03562,0.08217 -21.97787,0.612412 -12.83747,2.31355 -22.14571,9.65178 -28.31927,22.32571 -4.28979,8.80669 -5.91072,16.90243 -5.92115,22.82084 -0.0127,7.22569 0.30999,20.67877 0.88668,24.80835 0.15347,1.09889 0.77818,2.0336 0.74073,2.07714 -0.0375,0.0435 -5.15232,0.3285 -11.36637,0.63325 -6.21405,0.30476 -11.36463,0.61021 -11.44572,0.67879 -0.0811,0.0686 -0.21265,8.64427 -0.29235,19.0571 l -0.14491,18.93243 4.95432,0.20346 c 2.72488,0.1119 7.59742,0.29716 10.82787,0.4117 l 5.87355,0.20824 0.19799,9.70125 c 0.10889,5.33569 0.27577,22.13873 0.37083,37.34009 0.0951,15.20136 0.26889,36.25515 0.38629,46.78621 l 0.21345,19.14739 23.17014,-0.10215 c 12.74358,-0.0562 23.219,-0.15102 23.27872,-0.21074 z"
           id="path132"
           sodipodi:nodetypes="csssscsccssccsscsscccsccsssssssscssccsscssssscsscccsscsssssscssscsscssscsss" />
      </g>
    </g>
    <path
       style="fill:#ffffff;stroke-width:2.2;stroke-linecap:round;stroke-linejoin:round;paint-order:markers fill stroke"
       d="m 171.66011,304.36577 c -0.0861,-6.98184 -0.26561,-27.21067 -0.39887,-44.95297 -0.23066,-30.70927 -0.55425,-55.15747 -0.73228,-55.32625 -0.0452,-0.0429 -4.90341,-0.25844 -10.79593,-0.47898 -5.89251,-0.22054 -10.72407,-0.41672 -10.7368,-0.43596 -0.0127,-0.0192 0.0547,-7.98192 0.14992,-17.69486 0.0952,-9.71293 0.13418,-17.72585 0.0866,-17.80647 -0.10987,-0.18641 2.25856,-0.35553 11.20663,-0.80018 6.32109,-0.31412 9.13218,-0.55708 11.00441,-0.95111 0.69959,-0.14724 0.87532,-0.96856 0.43348,-2.02602 -0.55706,-1.33323 -0.80861,-4.90689 -1.10779,-15.73744 -0.27252,-9.86575 -0.26907,-10.05388 0.24411,-13.30378 1.24856,-7.90689 2.98431,-13.95539 5.40578,-18.83721 2.70504,-5.45353 5.58454,-9.49223 9.1418,-12.82203 4.5891,-4.295658 9.9169,-7.062993 16.55553,-8.599178 2.53078,-0.585625 3.29855,-0.643278 11.7413,-0.881674 8.1419,-0.229901 37.32713,0.01284 37.55176,0.31233 0.0381,0.05076 -0.006,2.900222 -0.0978,6.332122 -0.0919,3.43191 -0.2448,11.2008 -0.33989,17.2642 l -0.17288,11.02437 -10.86088,-0.05 c -11.19528,-0.0515 -11.77207,-0.0137 -14.26951,0.93527 -1.56989,0.59651 -3.90041,2.28969 -5.38027,3.90889 -1.35004,1.47716 -2.91427,4.45726 -3.4502,6.57318 -0.4806,1.89744 -0.78605,6.1878 -0.94021,13.20597 -0.0711,3.23765 -0.18686,7.47602 -0.25722,9.41861 l -0.12793,3.53197 16.84705,-0.0821 16.84705,-0.0821 -0.12054,1.02399 c -0.0663,0.5632 -0.33381,3.62 -0.59446,6.79289 -0.26066,3.17289 -0.84012,9.90131 -1.28768,14.95203 -0.44757,5.05073 -0.88446,10.42988 -0.97086,11.95367 l -0.15709,2.77053 -3.55474,-0.18041 c -1.9551,-0.0992 -8.11099,-0.18041 -13.67974,-0.18041 -10.07428,0 -10.13101,0.003 -11.32668,0.54394 l -1.20169,0.54395 -0.21019,53.61303 c -0.1156,29.48717 -0.17512,54.80507 -0.13227,56.26201 l 0.0779,2.64898 h -10.10624 c -5.55843,0 -15.51074,0.0701 -22.11622,0.15574 l -12.00998,0.15573 z"
       id="path844" />
  </g>
</svg>
