<?xml version="1.0" encoding="UTF-8" standalone="no"?>
<svg
   xmlns:dc="http://purl.org/dc/elements/1.1/"
   xmlns:cc="http://creativecommons.org/ns#"
   xmlns:rdf="http://www.w3.org/1999/02/22-rdf-syntax-ns#"
   xmlns:svg="http://www.w3.org/2000/svg"
   xmlns="http://www.w3.org/2000/svg"
   xmlns:sodipodi="http://sodipodi.sourceforge.net/DTD/sodipodi-0.dtd"
   xmlns:inkscape="http://www.inkscape.org/namespaces/inkscape"
   version="1.1"
   id="svg833"
   width="700"
   height="630"
   viewBox="0 0 700 630"
   sodipodi:docname="github.svg"
   inkscape:version="1.0.1 (3bc2e813f5, 2020-09-07)">
  <metadata
     id="metadata839">
    <rdf:RDF>
      <cc:Work
         rdf:about="">
        <dc:format>image/svg+xml</dc:format>
        <dc:type
           rdf:resource="http://purl.org/dc/dcmitype/StillImage" />
        <dc:title />
      </cc:Work>
    </rdf:RDF>
  </metadata>
  <defs
     id="defs837">
    <inkscape:path-effect
       effect="bspline"
       id="path-effect4003"
       is_visible="true"
       lpeversion="1"
       weight="33.333333"
       steps="2"
       helper_size="0"
       apply_no_weight="true"
       apply_with_weight="true"
       only_selected="false" />
    <inkscape:path-effect
       effect="bspline"
       id="path-effect3994"
       is_visible="true"
       lpeversion="1"
       weight="33.333333"
       steps="2"
       helper_size="0"
       apply_no_weight="true"
       apply_with_weight="true"
       only_selected="false" />
    <inkscape:path-effect
       effect="bspline"
       id="path-effect3985"
       is_visible="true"
       lpeversion="1"
       weight="33.333333"
       steps="2"
       helper_size="0"
       apply_no_weight="true"
       apply_with_weight="true"
       only_selected="false" />
    <inkscape:path-effect
       effect="bspline"
       id="path-effect3966"
       is_visible="true"
       lpeversion="1"
       weight="33.333333"
       steps="2"
       helper_size="0"
       apply_no_weight="true"
       apply_with_weight="true"
       only_selected="false" />
    <inkscape:path-effect
       effect="bspline"
       id="path-effect3938"
       is_visible="true"
       lpeversion="1"
       weight="33.333333"
       steps="2"
       helper_size="0"
       apply_no_weight="true"
       apply_with_weight="true"
       only_selected="false" />
    <inkscape:path-effect
       effect="bspline"
       id="path-effect3929"
       is_visible="true"
       lpeversion="1"
       weight="33.333333"
       steps="2"
       helper_size="0"
       apply_no_weight="true"
       apply_with_weight="true"
       only_selected="false" />
    <inkscape:path-effect
       effect="bspline"
       id="path-effect3908"
       is_visible="true"
       lpeversion="1"
       weight="33.333333"
       steps="2"
       helper_size="0"
       apply_no_weight="true"
       apply_with_weight="true"
       only_selected="false" />
    <inkscape:path-effect
       effect="skeletal"
       id="path-effect3904"
       is_visible="true"
       lpeversion="1"
       pattern="M 0,5 C 0,2.24 2.24,0 5,0 7.76,0 10,2.24 10,5 10,7.76 7.76,10 5,10 2.24,10 0,7.76 0,5 Z"
       copytype="single_stretched"
       prop_scale="0.836599"
       scale_y_rel="false"
       spacing="0"
       normal_offset="0"
       tang_offset="0"
       prop_units="false"
       vertical_pattern="false"
       hide_knot="false"
       fuse_tolerance="0" />
    <inkscape:path-effect
       effect="bspline"
       id="path-effect3902"
       is_visible="true"
       lpeversion="1"
       weight="33.333333"
       steps="2"
       helper_size="0"
       apply_no_weight="true"
       apply_with_weight="true"
       only_selected="false" />
    <inkscape:path-effect
       effect="skeletal"
       id="path-effect3898"
       is_visible="true"
       lpeversion="1"
       pattern="M 0,5 C 0,2.24 2.24,0 5,0 7.76,0 10,2.24 10,5 10,7.76 7.76,10 5,10 2.24,10 0,7.76 0,5 Z"
       copytype="single_stretched"
       prop_scale="0.836599"
       scale_y_rel="false"
       spacing="0"
       normal_offset="0"
       tang_offset="0"
       prop_units="false"
       vertical_pattern="false"
       hide_knot="false"
       fuse_tolerance="0" />
    <inkscape:path-effect
       effect="skeletal"
       id="path-effect861"
       is_visible="true"
       lpeversion="1"
       pattern="m -249.16363,-3.5604039 c 0,-2.7599999 2.24,-5.0000002 5,-5.0000002 2.76,0 5,2.2400003 5,5.0000002 0,2.75999997 -2.24,5 -5,5 -2.76,0 -5,-2.24000003 -5,-5 z"
       copytype="single_stretched"
       prop_scale="1.683632"
       scale_y_rel="false"
       spacing="0"
       normal_offset="0"
       tang_offset="0"
       prop_units="false"
       vertical_pattern="false"
       hide_knot="false"
       fuse_tolerance="0" />
    <inkscape:path-effect
       effect="spiro"
       id="path-effect859"
       is_visible="true"
       lpeversion="1" />
    <inkscape:path-effect
       effect="skeletal"
       id="path-effect855"
       is_visible="true"
       lpeversion="1"
       pattern="M 0,5 C 0,2.24 2.24,0 5,0 7.76,0 10,2.24 10,5 10,7.76 7.76,10 5,10 2.24,10 0,7.76 0,5 Z"
       copytype="single_stretched"
       prop_scale="0.178065"
       scale_y_rel="false"
       spacing="0"
       normal_offset="0"
       tang_offset="0"
       prop_units="false"
       vertical_pattern="false"
       hide_knot="false"
       fuse_tolerance="0" />
    <inkscape:path-effect
       effect="skeletal"
       id="path-effect849"
       is_visible="true"
       lpeversion="1"
       pattern="M 0,5 C 0,2.24 2.24,0 5,0 7.76,0 10,2.24 10,5 10,7.76 7.76,10 5,10 2.24,10 0,7.76 0,5 Z"
       copytype="single_stretched"
       prop_scale="0.178065"
       scale_y_rel="false"
       spacing="0"
       normal_offset="0"
       tang_offset="0"
       prop_units="false"
       vertical_pattern="false"
       hide_knot="false"
       fuse_tolerance="0" />
  </defs>
  <sodipodi:namedview
     pagecolor="#ffffff"
     bordercolor="#666666"
     borderopacity="1"
     objecttolerance="10"
     gridtolerance="10"
     guidetolerance="10"
     inkscape:pageopacity="0"
     inkscape:pageshadow="2"
     inkscape:window-width="1920"
     inkscape:window-height="1046"
     id="namedview835"
     showgrid="false"
     inkscape:zoom="1.2256518"
     inkscape:cx="274.82285"
     inkscape:cy="315.93419"
     inkscape:window-x="-11"
     inkscape:window-y="-11"
     inkscape:window-maximized="1"
     inkscape:current-layer="g841"
     inkscape:pagecheckerboard="true"
     inkscape:document-rotation="0" />
  <g
     inkscape:groupmode="layer"
     inkscape:label="Image"
     id="g841">
    <path
       style="fill:#000000;stroke:none;stroke-width:77.3291;stroke-linecap:butt;stroke-linejoin:miter;stroke-miterlimit:4;stroke-dasharray:none;stroke-opacity:1"
       d="m 292.58895,609.07018 c -0.15153,0.76882 -12.24685,-0.2279 -33.94457,-6.46034 C 237.41692,596.51248 205.1777,584.3459 170.7541,560.19608 140.28034,538.82693 106.59271,506.8352 81.420823,462.46868 61.217019,426.81856 46.811009,383.1317 43.462856,334.97581 c -2.943972,-42.11606 2.617801,-87.90045 20.2037,-131.79848 1.5e-5,0 2.5e-5,-6e-5 2.5e-5,-6e-5 C 83.829365,152.94485 119.27512,105.65974 167.04378,70.554869 197.17258,48.415521 232.02556,31.362361 269.6634,20.964009 305.83273,10.961813 344.53603,7.1581923 383.23059,11.00305 c 8.80116,0.87814 17.58551,2.152084 26.32318,3.815731 29.20772,5.561127 57.22888,15.348162 83.06263,28.573096 34.69505,17.749284 65.34818,41.654959 90.08636,69.892203 27.35874,31.26121 47.12348,67.45047 59.38127,104.70205 13.08686,39.72986 17.66072,80.57252 14.56812,119.35791 -3.38054,42.16144 -15.69912,81.41808 -33.11525,115.32074 -19.64701,38.2687 -45.83145,69.89108 -74.15321,93.97177 -35.15298,29.8825 -72.92342,48.29767 -106.91616,58.62486 -45.78782,13.89919 -85.92664,13.64189 -110.89334,11.30384 -25.79714,-2.41582 -39.14791,-6.66971 -38.98524,-7.49507 0.16267,-0.82536 13.8082,1.80384 39.29382,2.66271 24.64269,0.83045 63.89766,-0.4883 107.81244,-15.1718 32.64909,-10.90801 68.67519,-29.52449 101.95232,-58.86364 26.77328,-23.60028 51.3888,-54.33089 69.71854,-91.18534 16.22856,-32.651 27.56963,-70.25737 30.3845,-110.29126 C 644.3567,299.40029 639.68129,260.62621 627.03019,222.9945 615.16046,187.72502 596.25686,153.50968 570.33628,124.15355 546.91891,97.602934 517.8414,75.077244 484.98926,58.32382 460.5188,45.85366 433.99075,36.608391 406.40494,31.354621 398.15203,29.782838 389.86017,28.579095 381.55874,27.749866 345.0417,24.086257 308.3882,27.646241 274.0802,37.025198 238.37667,46.795604 205.24572,62.836156 176.62996,83.661735 131.2134,116.71118 97.173846,161.38915 77.665841,208.86135 c 0,0 -1e-5,7e-5 -1e-5,7e-5 -17.035828,41.37141 -22.80842,84.96884 -20.529101,125.24756 2.624968,46.0682 15.731069,88.15587 34.485814,122.69743 23.327926,43.01559 55.170906,74.76152 84.164516,96.43642 32.75059,24.47233 63.76935,37.72704 84.24401,45.06191 20.93362,7.49929 32.70941,9.99662 32.55788,10.76544 z"
       id="path857"
       inkscape:path-effect="#path-effect859;#path-effect861"
       inkscape:original-d="M 292.58895,609.07018 C 235.74744,609.34114 134.57878,336.83507 70.666211,206.01931 6.7536353,75.203553 138.11431,120.07964 171.83687,77.108302 205.55942,34.136967 441.6263,104.84965 576.51952,118.71882 711.41272,132.58799 555.85124,401.0186 545.51561,542.167 c -10.33564,141.14839 -66.90219,40.25169 -104.43424,58.74425 -37.53205,18.49256 -91.65091,7.88796 -148.49242,8.15893 z"
       sodipodi:nodetypes="sssssss" />
    <g
       id="g4035"
       transform="translate(-250.85283,-5.6992243)">
      <path
         style="fill:none;stroke:#000000;stroke-width:1px;stroke-linecap:butt;stroke-linejoin:miter;stroke-opacity:1"
         d="m 514.42018,605.59616 c 0,0 8.77085,-0.40794 10.19866,-10.40262"
         id="path865" />
      <path
         style="fill:none;stroke:#000000;stroke-width:1px;stroke-linecap:butt;stroke-linejoin:miter;stroke-opacity:1"
         d="m 524.61884,595.19354 0.81589,-59.35618 c 0,0 -26.10856,4.48741 -37.53105,3.87549 -11.42249,-0.61192 -25.08869,-4.28344 -30.18802,-6.93509 -5.09933,-2.65165 -16.31785,-7.547 -22.84499,-15.9099 -6.52714,-8.3629 -9.53336,-14.58418 -17.23573,-31.10589 -1.40301,-3.00947 -9.28078,-15.90991 -20.29532,-24.57877 -11.01455,-8.66885 -17.03175,-12.8503 -17.4397,-16.92976 -0.40795,-4.07947 8.46489,-5.60927 8.46489,-5.60927 0,0 11.83043,-2.75363 26.92444,7.03708 15.09401,9.79071 20.60129,18.56155 25.70061,25.70061 5.09933,7.13906 17.94964,25.29266 35.6953,28.35226 17.74566,3.0596 29.37213,2.44768 49.56546,-4.89535"
         id="path867"
         sodipodi:nodetypes="ccsssszscsssc" />
      <path
         style="fill:none;stroke:#000000;stroke-width:1px;stroke-linecap:butt;stroke-linejoin:miter;stroke-opacity:1"
         d="m 526.25062,494.83877 c 0,0 0.40795,-15.70593 6.32317,-24.88472 5.91522,-9.17879 12.23839,-15.90991 12.23839,-15.90991"
         id="path869" />
      <path
         style="fill:none;stroke:#000000;stroke-width:1px;stroke-linecap:butt;stroke-linejoin:miter;stroke-opacity:1"
         d="m 544.81218,454.04414 c 0,0 -25.70061,-2.2437 -41.20257,-7.547 -20.31123,-4.65666 -47.67181,-19.13589 -61.80385,-35.28735 -34.79656,-35.90784 -34.67712,-84.80581 -34.67543,-101.78258 0.98337,-50.03527 32.6357,-83.425 32.6357,-83.425"
         id="path871"
         sodipodi:nodetypes="ccccc" />
      <path
         style="fill:none;stroke:#000000;stroke-width:1px;stroke-linecap:butt;stroke-linejoin:miter;stroke-opacity:1"
         d="m 654.39233,454.32852 c 0,0 25.70061,-2.2437 41.20257,-7.547 20.31123,-4.65666 47.67181,-19.13589 61.80385,-35.28735 34.79656,-35.90784 34.67712,-84.80581 34.67543,-101.78258 -0.98337,-50.03527 -32.6357,-83.42501 -32.6357,-83.42501"
         id="path871-9"
         sodipodi:nodetypes="ccccc" />
      <path
         style="fill:none;stroke:#000000;stroke-width:1px;stroke-linecap:butt;stroke-linejoin:miter;stroke-opacity:1"
         d="m 672.95389,495.12315 c 0,0 -0.40795,-15.70593 -6.32317,-24.88472 -5.91522,-9.17879 -12.23839,-15.90991 -12.23839,-15.90991"
         id="path869-2" />
      <path
         style="fill:none;stroke:#000000;stroke-width:1px;stroke-linecap:butt;stroke-linejoin:miter;stroke-opacity:1"
         d="m 439.76603,226.00221 c 0,0 -5.57556,-1.96463 -6.1192,-31.81981 -0.42715,-23.45816 8.97482,-46.91381 9.17879,-46.91381 0.20398,0 15.50196,-1.83576 35.08338,5.91522 19.58142,7.75097 33.45159,15.29798 47.11779,25.29266"
         id="path903"
         sodipodi:nodetypes="csssc" />
      <path
         style="fill:none;stroke:#000000;stroke-width:1px;stroke-linecap:butt;stroke-linejoin:miter;stroke-opacity:1"
         d="m 759.43848,226.28658 c 0,0 5.57556,-1.96463 6.1192,-31.81981 0.42715,-23.45816 -8.97482,-46.91381 -9.17879,-46.91381 -0.20398,0 -15.50196,-1.83576 -35.08338,5.91522 -19.58142,7.75097 -33.45159,15.29798 -47.11779,25.29266"
         id="path903-9"
         sodipodi:nodetypes="csssc" />
      <path
         style="fill:none;stroke:#000000;stroke-width:1px;stroke-linecap:butt;stroke-linejoin:miter;stroke-opacity:1"
         d="m 525.02679,178.47647 c 0,0 43.81375,-12.73858 79.95746,-11.62647 39.77475,1.22384 69.19347,11.91084 69.19347,11.91084"
         id="path920"
         sodipodi:nodetypes="csc" />
      <g
         id="g3817"
         style="stroke:#0bff00;stroke-width:2.5;stroke-miterlimit:4;stroke-dasharray:none;stroke-opacity:1">
        <g
           id="g3797"
           style="stroke:#0bff00;stroke-width:2.5;stroke-miterlimit:4;stroke-dasharray:none;stroke-opacity:1">
          <path
             style="fill:none;stroke:#0bff00;stroke-width:2.5;stroke-linecap:butt;stroke-linejoin:miter;stroke-miterlimit:4;stroke-dasharray:none;stroke-opacity:1"
             d="m 514.42018,605.59616 c 0,0 8.77085,-0.40794 10.19866,-10.40262"
             id="path865-4" />
          <path
             style="fill:none;stroke:#0bff00;stroke-width:2.5;stroke-linecap:butt;stroke-linejoin:miter;stroke-miterlimit:4;stroke-dasharray:none;stroke-opacity:1"
             d="m 524.61884,595.19354 0.81589,-59.35618 c 0,0 -26.10856,4.48741 -37.53105,3.87549 -11.42249,-0.61192 -25.08869,-4.28344 -30.18802,-6.93509 -5.09933,-2.65165 -16.31785,-7.547 -22.84499,-15.9099 -6.52714,-8.3629 -9.53336,-14.58418 -17.23573,-31.10589 -1.40301,-3.00947 -9.28078,-15.90991 -20.29532,-24.57877 -11.01455,-8.66885 -17.03175,-12.8503 -17.4397,-16.92976 -0.40795,-4.07947 8.46489,-5.60927 8.46489,-5.60927 0,0 11.83043,-2.75363 26.92444,7.03708 15.09401,9.79071 20.60129,18.56155 25.70061,25.70061 5.09933,7.13906 17.94964,25.29266 35.6953,28.35226 17.74566,3.0596 29.37213,2.44768 49.56546,-4.89535"
             id="path867-4"
             sodipodi:nodetypes="ccsssszscsssc" />
          <path
             style="fill:none;stroke:#0bff00;stroke-width:2.5;stroke-linecap:butt;stroke-linejoin:miter;stroke-miterlimit:4;stroke-dasharray:none;stroke-opacity:1"
             d="m 526.25062,494.83877 c 0,0 0.40795,-15.70593 6.32317,-24.88472 5.91522,-9.17879 12.23839,-15.90991 12.23839,-15.90991"
             id="path869-6" />
        </g>
        <path
           style="fill:none;stroke:#0bff00;stroke-width:2.5;stroke-linecap:butt;stroke-linejoin:miter;stroke-miterlimit:4;stroke-dasharray:none;stroke-opacity:1"
           d="m 544.81218,454.04414 c 0,0 -25.70061,-2.2437 -41.20257,-7.547 -20.31123,-4.65666 -47.67181,-19.13589 -61.80385,-35.28735 -34.79656,-35.90784 -34.67712,-84.80581 -34.67543,-101.78258 0.98337,-50.03527 32.6357,-83.425 32.6357,-83.425"
           id="path871-2"
           sodipodi:nodetypes="ccccc" />
        <path
           style="fill:none;stroke:#0bff00;stroke-width:2.5;stroke-linecap:butt;stroke-linejoin:miter;stroke-miterlimit:4;stroke-dasharray:none;stroke-opacity:1"
           d="m 654.39233,454.32852 c 0,0 25.70061,-2.2437 41.20257,-7.547 20.31123,-4.65666 47.67181,-19.13589 61.80385,-35.28735 34.79656,-35.90784 34.67712,-84.80581 34.67543,-101.78258 -0.98337,-50.03527 -32.6357,-83.42501 -32.6357,-83.42501"
           id="path871-9-5"
           sodipodi:nodetypes="ccccc" />
        <g
           id="g3802"
           style="stroke:#0bff00;stroke-width:2.5;stroke-miterlimit:4;stroke-dasharray:none;stroke-opacity:1">
          <path
             style="fill:none;stroke:#0bff00;stroke-width:2.5;stroke-linecap:butt;stroke-linejoin:miter;stroke-miterlimit:4;stroke-dasharray:none;stroke-opacity:1"
             d="m 439.76603,226.00221 c 0,0 -5.57556,-1.96463 -6.1192,-31.81981 -0.42715,-23.45816 8.97482,-46.91381 9.17879,-46.91381 0.20398,0 15.50196,-1.83576 35.08338,5.91522 19.58142,7.75097 33.45159,15.29798 47.11779,25.29266"
             id="path903-0"
             sodipodi:nodetypes="csssc" />
          <path
             style="fill:none;stroke:#0bff00;stroke-width:2.5;stroke-linecap:butt;stroke-linejoin:miter;stroke-miterlimit:4;stroke-dasharray:none;stroke-opacity:1"
             d="m 759.43848,226.28658 c 0,0 5.57556,-1.96463 6.1192,-31.81981 0.42715,-23.45816 -8.97482,-46.91381 -9.17879,-46.91381 -0.20398,0 -15.50196,-1.83576 -35.08338,5.91522 -19.58142,7.75097 -33.45159,15.29798 -47.11779,25.29266"
             id="path903-9-2"
             sodipodi:nodetypes="csssc" />
          <path
             style="fill:none;stroke:#0bff00;stroke-width:2.5;stroke-linecap:butt;stroke-linejoin:miter;stroke-miterlimit:4;stroke-dasharray:none;stroke-opacity:1"
             d="m 525.02679,178.47647 c 0,0 36.06277,-12.53461 79.95746,-11.62647 39.78506,0.82312 69.19347,11.91084 69.19347,11.91084"
             id="path920-3"
             sodipodi:nodetypes="csc" />
        </g>
        <g
           id="g3792"
           style="stroke:#0bff00;stroke-width:2.5;stroke-miterlimit:4;stroke-dasharray:none;stroke-opacity:1">
          <path
             style="fill:none;stroke:#0bff00;stroke-width:2.5;stroke-linecap:butt;stroke-linejoin:miter;stroke-miterlimit:4;stroke-dasharray:none;stroke-opacity:1"
             d="m 672.95389,495.12315 c 0,0 -0.40795,-15.70593 -6.32317,-24.88472 -5.91522,-9.17879 -12.23839,-15.90991 -12.23839,-15.90991"
             id="path869-2-2" />
          <path
             style="fill:none;stroke:#0bff00;stroke-width:2.5;stroke-linecap:butt;stroke-linejoin:miter;stroke-miterlimit:4;stroke-dasharray:none;stroke-opacity:1"
             d="m 672.95389,495.12315 1.46919,99.39608 c 0,0 0.86538,10.38462 9.80769,11.25"
             id="path922" />
        </g>
      </g>
      <path
         style="fill:none;stroke:#00ff00;stroke-width:1.5;stroke-linecap:butt;stroke-linejoin:miter;stroke-miterlimit:4;stroke-dasharray:none;stroke-opacity:1"
         d="m 406.59561,449.90553 c -0.0251,1.14786 1.65768,2.43969 3.33184,2.98314 1.67415,0.54345 3.3399,0.33948 3.88365,-0.50127 0.54374,-0.84075 -0.0342,-2.31953 -0.84123,-3.36515 -0.80705,-1.04563 -1.84389,-1.65753 -3.22963,-1.4625 -1.38574,0.19504 -3.11953,1.19791 -3.14463,2.34578 z"
         id="path3906"
         inkscape:path-effect="#path-effect3908"
         inkscape:original-d="m 404.88662,449.76071 c 1.68378,1.29283 3.36655,2.58466 5.04834,3.87549 1.66678,-0.20297 3.33253,-0.40694 4.99734,-0.61192 -0.57694,-1.47783 -1.15485,-2.95661 -1.73377,-4.43642 -1.03589,-0.61093 -2.07273,-1.22284 -3.11059,-1.83575 -1.73276,1.00386 -3.46655,2.00673 -5.20132,3.0086 z"
         sodipodi:nodetypes="cccccc" />
      <path
         style="fill:none;stroke:#00ff00;stroke-width:1.5;stroke-linecap:butt;stroke-linejoin:miter;stroke-miterlimit:4;stroke-dasharray:none;stroke-opacity:1"
         d="m 419.46159,459.91507 c -0.11053,1.40295 1.62324,3.9696 3.32306,5.15032 1.69982,1.18072 3.36557,0.97675 3.90932,0.136 0.54374,-0.84075 -0.0342,-2.31953 -0.7564,-3.61992 -0.72222,-1.30039 -1.58909,-2.42221 -2.99989,-2.86476 -1.41081,-0.44255 -3.36557,-0.20458 -3.47609,1.19836 z"
         id="path3906-5"
         inkscape:path-effect="#path-effect3929"
         inkscape:original-d="m 417.61651,458.7502 c 1.73477,2.56767 3.46854,5.13432 5.20132,7.69999 1.66678,-0.20297 3.33253,-0.40694 4.99734,-0.61192 -0.57694,-1.47783 -1.15485,-2.95661 -1.73377,-4.43642 -0.86591,-1.12088 -1.73278,-2.2427 -2.60066,-3.36555 -1.95373,0.23897 -3.90849,0.47694 -5.86423,0.7139 z"
         sodipodi:nodetypes="cccccc" />
      <path
         style="fill:none;stroke:#00ff00;stroke-width:1.5;stroke-linecap:butt;stroke-linejoin:miter;stroke-miterlimit:4;stroke-dasharray:none;stroke-opacity:1"
         d="m 430.61179,476.41988 c 0.009,1.67487 1.64068,3.6806 3.3831,4.97207 1.74243,1.29147 3.59516,1.86939 4.4275,0.92634 0.83235,-0.94304 0.64538,-3.40761 -0.28903,-5.37097 -0.9344,-1.96337 -2.61715,-3.42514 -4.2664,-3.48514 -1.64926,-0.06 -3.26406,1.28284 -3.25517,2.9577 z"
         id="path3906-6"
         inkscape:path-effect="#path-effect3938"
         inkscape:original-d="m 428.98801,476.08792 c 1.63279,2.00674 3.26457,4.01247 4.89536,6.01721 1.85375,0.57892 3.70648,1.15684 5.55827,1.73377 -0.18598,-2.46372 -0.37295,-4.92829 -0.56093,-7.39403 -1.68182,-1.46084 -3.36456,-2.92262 -5.04833,-4.38541 -1.61378,1.34381 -3.22858,2.68664 -4.84437,4.02846 z"
         sodipodi:nodetypes="cccccc" />
      <path
         style="fill:none;stroke:#00ff00;stroke-width:1.5;stroke-linecap:butt;stroke-linejoin:miter;stroke-miterlimit:4;stroke-dasharray:none;stroke-opacity:1"
         d="m 444.80811,493.5454 c 0.009,1.67488 1.77664,3.73161 3.58704,5.04859 1.8104,1.31697 3.66313,1.89489 4.85231,1.07915 1.18918,-0.81573 1.71608,-3.02534 0.78184,-4.98859 -0.93425,-1.96324 -3.33089,-3.67998 -5.40508,-3.89292 -2.0742,-0.21294 -3.82498,1.07889 -3.81611,2.75377 z"
         id="path3906-6-2"
         inkscape:path-effect="#path-effect3966"
         inkscape:original-d="m 443.04829,493.16248 c 1.76878,2.05773 3.53654,4.11446 5.30331,6.17019 1.85375,0.57892 3.70648,1.15684 5.55827,1.73377 0.52794,-2.20875 1.05484,-4.41836 1.58079,-6.62913 -2.39575,-1.71581 -4.79238,-3.43255 -7.19005,-5.15031 -1.74976,1.29282 -3.50054,2.58465 -5.25232,3.87548 z"
         sodipodi:nodetypes="cccccc" />
      <path
         style="fill:none;stroke:#00ff00;stroke-width:1.5;stroke-linecap:butt;stroke-linejoin:miter;stroke-miterlimit:4;stroke-dasharray:none;stroke-opacity:1"
         d="m 465.25272,505.77487 c 0.009,1.67488 1.77664,3.73161 3.57847,4.82747 1.80184,1.09586 3.63757,1.23184 5.10729,0.467 1.46973,-0.76483 2.57453,-2.43053 1.64879,-4.17261 -0.92574,-1.74208 -3.88329,-3.56079 -6.23796,-3.82468 -2.35468,-0.26389 -4.10546,1.02794 -4.09659,2.70282 z"
         id="path3906-6-2-7"
         inkscape:path-effect="#path-effect3985"
         inkscape:original-d="m 463.4929,505.39195 c 1.76878,2.05773 3.53654,4.11446 5.30331,6.17019 1.83675,0.13698 3.67248,0.27296 5.50728,0.40794 1.10587,-1.66481 2.21067,-3.33051 3.31456,-4.99734 -2.95669,-1.81781 -5.91424,-3.63652 -8.87283,-5.45627 -1.74976,1.29282 -3.50054,2.58465 -5.25232,3.87548 z"
         sodipodi:nodetypes="cccccc" />
      <path
         style="fill:none;stroke:#00ff00;stroke-width:1.5;stroke-linecap:butt;stroke-linejoin:miter;stroke-miterlimit:4;stroke-dasharray:none;stroke-opacity:1"
         d="m 488.76073,510.49168 c -0.2291,1.44538 1.45368,3.04317 3.16198,3.91812 1.7083,0.87494 3.44204,1.02792 5.32832,0.21194 1.88628,-0.81599 3.92592,-2.60067 3.28905,-4.12176 -0.63687,-1.52108 -3.95135,-2.77888 -6.67993,-2.7622 -2.72859,0.0167 -4.87031,1.30851 -5.09942,2.7539 z"
         id="path3906-6-2-4"
         inkscape:path-effect="#path-effect3994"
         inkscape:original-d="m 486.84782,510.3383 c 1.68378,1.59879 3.36656,3.19658 5.04834,4.79337 1.73477,0.15398 3.46851,0.30696 5.20132,0.45894 2.04076,-1.7838 4.0804,-3.56848 6.11919,-5.3543 -3.31366,-1.25687 -6.62814,-2.51467 -9.94369,-3.77349 -2.14071,1.29282 -4.28243,2.58465 -6.42516,3.87548 z"
         sodipodi:nodetypes="cccccc" />
      <path
         style="fill:none;stroke:#00ff00;stroke-width:1.5;stroke-linecap:butt;stroke-linejoin:miter;stroke-miterlimit:4;stroke-dasharray:none;stroke-opacity:1"
         d="m 511.46967,509.15723 c -0.14387,1.64055 1.89586,2.55843 3.86748,2.97458 1.97161,0.41616 3.87532,0.33117 5.45558,-0.74804 1.58026,-1.07921 2.83804,-3.15285 2.03131,-4.75059 -0.80672,-1.59774 -3.67929,-2.71956 -6.28054,-2.09938 -2.60125,0.62018 -4.92995,2.98287 -5.07383,4.62343 z"
         id="path3906-6-2-2"
         inkscape:path-effect="#path-effect4003"
         inkscape:original-d="m 509.28485,509.87936 c 2.04074,0.91888 4.08047,1.83676 6.11921,2.75364 1.90475,-0.084 3.80846,-0.16898 5.71125,-0.25497 1.25885,-2.07276 2.51663,-4.1464 3.7735,-6.22118 -2.8717,-1.12088 -5.74426,-2.24271 -8.61787,-3.36555 -2.32768,2.36367 -4.65638,4.72636 -6.98609,7.08806 z"
         sodipodi:nodetypes="cccccc" />
    </g>
    <path
       style="fill:#00ff00;fill-opacity:0.768627;stroke:none;stroke-width:2;stroke-linecap:round;stroke-miterlimit:4;stroke-dasharray:none;stroke-opacity:1;paint-order:markers fill stroke"
       d="m 433.91935,599.20602 c 0,-0.65417 -0.68424,-1.1894 -1.52053,-1.1894 -2.22035,0 -5.70435,-3.84682 -6.56462,-7.24828 -0.41041,-1.6227 -1.10085,-26.81523 -1.53431,-55.98338 -0.95974,-64.58273 -0.69073,-62.86224 -12.27124,-78.48089 l -4.88174,-6.58401 5.83921,-0.56034 c 8.82995,-0.84734 24.24803,-4.03099 35.36235,-7.3019 23.34937,-6.87164 42.2785,-17.77198 57.36941,-33.0362 24.8796,-25.16529 36.58164,-56.83941 36.83509,-99.7021 0.0853,-14.4288 -0.76834,-22.0484 -3.83115,-34.1963 -4.41455,-17.50927 -14.71658,-38.47321 -24.93346,-50.73792 -1.75207,-2.10326 -2.84016,-4.03758 -2.41797,-4.29851 1.33658,-0.82606 3.27348,-8.90888 4.23569,-17.67582 1.19835,-10.9185 0.43751,-27.40521 -1.74233,-37.75469 -2.3724,-11.26371 -6.27277,-23.07224 -7.81644,-23.6646 -2.38778,-0.91628 -13.17637,-0.49586 -19.87272,0.77442 -15.03604,2.85229 -38.03003,13.05717 -56.74265,25.18276 l -6.52714,4.22952 -6.52714,-1.8802 c -22.399,-6.45222 -42.14087,-9.18177 -66.49523,-9.19377 -24.45908,-0.0121 -38.32618,1.6519 -62.06466,7.44728 l -13.51906,3.30047 -7.69415,-5.06327 c -13.40172,-8.81924 -36.44275,-19.61751 -48.87587,-22.90588 -8.59004,-2.27193 -23.13367,-3.70957 -25.69969,-2.54042 -1.58041,0.72009 -2.48786,2.52089 -4.48157,8.89354 -4.69628,15.01101 -6.12447,24.39982 -6.05579,39.81044 0.0617,13.83685 0.77036,19.88626 3.26787,27.89399 l 1.32026,4.23311 -2.85741,3.51787 c -8.06861,9.93361 -16.96763,26.77317 -21.82333,41.29614 -4.65837,13.9328 -6.5149,25.9636 -6.5149,42.21847 0,27.49884 4.98352,50.61124 15.25634,70.75532 20.42263,40.04692 58.67654,63.28659 115.84378,70.37638 l 4.22885,0.52446 -4.96189,6.66206 c -2.72905,3.66413 -5.80012,8.49781 -6.8246,10.74152 -1.86306,4.08023 -4.42218,14.88147 -4.42218,18.66461 0,1.7396 -0.68073,2.2318 -5.09933,3.687 -9.82895,3.23703 -16.37079,4.35678 -25.49664,4.36421 -24.00433,0.0195 -34.30185,-5.77512 -51.82586,-29.1635 -17.03942,-22.74164 -33.15177,-33.55528 -49.75274,-33.39106 -7.0136,0.0693 -11.4403,1.63446 -13.49576,4.7715 -2.59234,3.95641 -0.0437,7.29413 14.31165,18.74264 11.81527,9.42276 18.22087,17.74683 26.56149,34.51664 11.50218,23.1265 17.22506,29.46793 34.13056,37.81957 16.45944,8.13128 34.57005,10.16813 58.83619,6.61717 5.83363,-0.85366 10.63734,-1.50829 10.67491,-1.45475 0.0375,0.0535 -0.14601,13.38062 -0.40795,29.61571 -0.45672,28.30747 -0.54644,29.61277 -2.18731,31.81981 -0.94108,1.2658 -2.77684,2.85218 -4.07946,3.52529 -1.30262,0.67311 -2.60095,1.54338 -2.88518,1.93394 -1.13249,1.55615 -24.52668,-7.66301 -43.35135,-17.08385 C 153.22987,548.66678 100.76381,492.39249 74.700133,426.27127 59.600175,387.96402 53.027381,351.10925 53.965125,310.00659 54.991632,265.01334 64.258736,226.82373 83.437907,188.54965 122.40505,110.78659 193.02911,53.992213 277.67595,32.347532 c 25.82852,-6.6045 41.57427,-8.707156 69.35085,-9.260972 31.43816,-0.626822 53.3745,1.954794 81.58925,9.601972 90.78023,24.6046 162.36003,88.330208 196.49683,174.935968 13.78628,34.97608 20.38193,69.77191 20.41206,107.68539 0.0206,26.00528 -2.62803,47.58164 -8.78315,71.54775 -17.80743,69.33655 -59.39358,130.02992 -117.54686,171.55507 -22.16929,15.83028 -48.74561,29.47021 -74.82613,38.40348 -8.06097,2.76109 -10.44945,3.30735 -10.44945,2.38983 z"
       id="path4039" />
    <path
       style="fill:#00ff00;fill-opacity:0.768627;stroke:none;stroke-width:1.5;stroke-linecap:round;stroke-miterlimit:4;stroke-dasharray:none;stroke-opacity:1;paint-order:markers fill stroke"
       d=""
       id="path4041" />
    <path
       style="fill:#ffffff;fill-opacity:0.768627;stroke-width:2;stroke-linecap:round;paint-order:markers fill stroke"
       d="m 320.92077,610.87631 c -0.89748,-0.16113 -7.32263,-0.71521 -14.27812,-1.23126 -11.49427,-0.8528 -13.81907,-1.30689 -25.51968,-4.98462 l -12.87336,-4.04635 2.41211,-2.02965 c 4.55361,-3.8316 4.8328,-5.94378 5.25933,-39.78858 l 0.38904,-30.87025 -1.76348,0.42072 c -8.37986,1.99925 -22.093,3.33701 -33.99124,3.31595 -11.94396,-0.0211 -14.36213,-0.26667 -21.44152,-2.17707 -10.04768,-2.71139 -22.72123,-9.26338 -29.12144,-15.05523 -6.17634,-5.58927 -10.99781,-12.88117 -17.61269,-26.63707 -8.63248,-17.95158 -14.26575,-25.09431 -29.44391,-37.33357 -13.19737,-10.64198 -14.29732,-12.33228 -9.45953,-14.53652 9.41504,-4.28979 23.78174,0.0513 37.95434,11.46837 5.61936,4.52681 8.94202,8.16747 15.43239,16.90943 15.49975,20.87677 25.83778,28.97762 40.25921,31.54703 7.73632,1.37835 22.63657,1.55672 29.39718,0.35191 5.79271,-1.03232 18.34483,-4.71087 19.61437,-5.74822 0.49663,-0.40581 1.13767,-3.26315 1.42453,-6.34964 1.03348,-11.11987 4.10247,-17.71584 14.21018,-30.54101 1.91587,-2.43095 3.28552,-4.93556 3.04369,-5.56579 -0.30807,-0.8028 -4.28234,-1.67826 -13.27412,-2.92404 -37.92136,-5.25387 -66.19764,-17.87887 -87.12121,-38.89853 -20.92382,-21.01992 -31.9638,-45.99015 -35.52246,-80.34476 -1.46112,-14.1053 -0.5526,-35.10035 1.98157,-45.79263 4.76006,-20.08383 13.52868,-38.59773 25.51975,-53.88194 3.82805,-4.87936 3.82133,-4.80584 1.13376,-12.40893 -2.5657,-7.25833 -3.75546,-24.04538 -2.54002,-35.83887 0.99375,-9.64235 3.58741,-21.74332 6.43966,-30.04483 1.42311,-4.14195 1.75605,-4.50907 4.32481,-4.76877 4.00663,-0.40506 16.58383,1.4246 22.77236,3.31279 13.13483,4.00759 33.88561,13.93983 46.49778,22.2559 4.4281,2.91975 8.57858,5.30863 9.22327,5.30863 0.6447,0 5.35197,-1.10133 10.46059,-2.44741 34.08943,-8.98225 67.44936,-10.99355 99.85247,-6.02019 9.56893,1.46867 26.39292,5.33552 33.678,7.74059 l 5.12175,1.69088 8.80791,-5.74321 c 14.33887,-9.34969 35.68014,-19.46383 48.34462,-22.91169 6.70204,-1.82461 20.57325,-3.599 22.74544,-2.90957 1.55004,0.49196 4.64089,9.7394 7.36453,22.03373 3.45733,15.60617 2.9017,38.61084 -1.21874,50.45917 l -2.01221,5.78612 3.54066,4.51306 c 11.89054,15.1561 21.3437,35.06492 25.93369,54.61757 2.10498,8.96691 2.94972,35.08267 1.53745,47.5313 -5.72864,50.49551 -31.13561,85.92759 -75.07344,104.696 -12.82759,5.47941 -33.0779,10.66465 -49.39753,12.64861 -13.44063,1.63395 -13.53586,1.76394 -7.09195,9.67961 6.73576,8.27417 9.69081,13.57965 11.66233,20.93854 1.65236,6.16756 1.78622,9.31852 2.52948,59.54518 0.43163,29.16815 1.13152,54.39313 1.5553,56.0555 0.42378,1.66238 1.68553,4.10994 2.80388,5.43902 l 2.03337,2.41652 -2.66675,0.86625 c -8.2648,2.68467 -27.6062,6.51475 -44.27725,8.76801 -8.19131,1.10713 -55.17443,2.30129 -59.56015,1.51381 z M 249.41262,508.07826 c 3.4387,-3.29723 0.30479,-6.93649 -5.97329,-6.93649 -3.58437,0 -5.19024,0.65896 -6.1989,2.54367 -1.14065,2.13132 0.36036,4.66063 3.58316,6.03788 3.15984,1.35034 6.04053,0.79861 8.58903,-1.64506 z m 21.62868,-2.10035 c 4.31576,-3.39478 2.04079,-8.09971 -3.91644,-8.09971 -6.36402,0 -10.21801,6.28752 -5.35629,8.7384 3.03592,1.53045 6.849,1.26781 9.27273,-0.63869 z m -46.75014,0.0305 c 2.17431,-1.16366 2.06617,-5.16431 -0.19658,-7.27239 -2.1286,-1.98308 -6.96121,-3.03731 -8.76109,-1.9112 -0.71204,0.44549 -1.40601,1.91708 -1.54215,3.27018 -0.45836,4.55572 6.11711,8.25896 10.49982,5.91341 z m -20.61413,-11.55697 c 0.53849,-0.53849 0.97907,-2.15803 0.97907,-3.59899 0,-5.43759 -8.30332,-9.03595 -11.087,-4.8047 -2.85064,4.33306 6.44784,12.06379 10.10793,8.40369 z m -14.85792,-18.1944 c 1.22103,-4.86497 -2.11141,-9.64735 -6.42945,-9.22689 -3.64433,0.35485 -4.86908,3.78533 -2.49373,6.98483 3.24964,4.37712 8.08253,5.59145 8.92318,2.24206 z m -12.16176,-16.41331 c 1.29752,-3.3813 -3.62351,-9.16198 -6.9112,-8.1185 -0.90995,0.28881 -1.86936,1.08511 -2.132,1.76956 -0.59216,1.54313 1.46626,5.66863 3.38637,6.78699 2.17201,1.26507 5.08998,1.03911 5.65683,-0.43805 z M 163.36059,447.6772 c 2.00207,-2.00207 -0.66781,-6.91148 -3.75866,-6.91148 -5.08996,0 -6.57122,4.98335 -2.06361,6.94254 3.42581,1.489 4.30691,1.48429 5.82227,-0.0311 z"
       id="path878" />
  </g>
</svg>
