<?xml version="1.0" encoding="UTF-8" standalone="no"?>
<svg
   xmlns:dc="http://purl.org/dc/elements/1.1/"
   xmlns:cc="http://creativecommons.org/ns#"
   xmlns:rdf="http://www.w3.org/1999/02/22-rdf-syntax-ns#"
   xmlns:svg="http://www.w3.org/2000/svg"
   xmlns="http://www.w3.org/2000/svg"
   xmlns:sodipodi="http://sodipodi.sourceforge.net/DTD/sodipodi-0.dtd"
   xmlns:inkscape="http://www.inkscape.org/namespaces/inkscape"
   version="1.1"
   id="svg90"
   width="1333.3333"
   height="1440"
   viewBox="0 0 1333.3333 1440"
   sodipodi:docname="mail-nocolor.svg"
   inkscape:version="1.0.1 (3bc2e813f5, 2020-09-07)">
  <metadata
     id="metadata96">
    <rdf:RDF>
      <cc:Work
         rdf:about="">
        <dc:format>image/svg+xml</dc:format>
        <dc:type
           rdf:resource="http://purl.org/dc/dcmitype/StillImage" />
        <dc:title />
      </cc:Work>
    </rdf:RDF>
  </metadata>
  <defs
     id="defs94">
    <inkscape:path-effect
       effect="spiro"
       id="path-effect68"
       is_visible="true"
       lpeversion="1" />
    <inkscape:path-effect
       effect="skeletal"
       id="path-effect70"
       is_visible="true"
       lpeversion="1"
       pattern="m 77.122093,30.849889 c 0.244832,-8.421795 7.278387,-15.058306 15.700214,-14.813598 8.421833,0.244832 15.058303,7.27838 14.813603,15.700215 -0.24481,8.421805 -7.27839,15.058305 -15.700217,14.813597 -8.421797,-0.24481 -15.058308,-7.27839 -14.8136,-15.700214 z"
       copytype="single_stretched"
       prop_scale="1"
       scale_y_rel="false"
       spacing="0"
       normal_offset="0"
       tang_offset="0"
       prop_units="false"
       vertical_pattern="false"
       hide_knot="false"
       fuse_tolerance="0" />
  </defs>
  <sodipodi:namedview
     pagecolor="#ffffff"
     bordercolor="#666666"
     borderopacity="1"
     objecttolerance="10"
     gridtolerance="10"
     guidetolerance="10"
     inkscape:pageopacity="0"
     inkscape:pageshadow="2"
     inkscape:window-width="1920"
     inkscape:window-height="1046"
     id="namedview92"
     showgrid="false"
     inkscape:zoom="0.59722222"
     inkscape:cx="539.41427"
     inkscape:cy="760.65066"
     inkscape:window-x="-11"
     inkscape:window-y="-11"
     inkscape:window-maximized="1"
     inkscape:current-layer="g98"
     inkscape:document-rotation="0" />
  <g
     inkscape:groupmode="layer"
     inkscape:label="Image"
     id="g98">
    <path
       style="fill:#000000;stroke:none;stroke-width:3.05267px;stroke-linecap:butt;stroke-linejoin:miter;stroke-opacity:1"
       d="M 91.667133,697.94744 C 90.463,694.52676 86.885236,669.24336 88.365842,629.80506 89.853456,590.18012 96.74507,531.48095 120.68479,464.02411 143.09392,400.84612 181.68302,327.08579 244.82513,260.45382 295.50231,207.01466 361.82821,158.66405 442.15012,124.98512 512.15586,95.609493 592.71045,77.584441 677.69956,79.000462 c 4e-5,1.8e-5 8e-5,1e-5 1.2e-4,2e-6 77.67014,1.330717 158.08581,18.996473 234.29381,54.011376 71.2442,32.70675 138.58711,80.55867 193.88481,142.71426 52.6872,59.28373 93.7125,130.86025 119.1568,209.39336 20.7811,64.0666 31.1179,132.62838 28.8587,201.80067 -0.4126,12.63307 -1.2435,25.22211 -2.4937,37.74375 -5.7905,57.829 -20.122,113.92877 -41.7284,166.14108 -25.8045,62.32849 -62.1118,118.67984 -105.254,166.87474 -45.1504,50.457 -97.6881,91.9051 -154.11107,122.9594 -59.70771,32.8408 -123.29575,53.8298 -186.15308,64.2968 -67.74343,11.2923 -134.50298,10.3879 -196.65156,-0.4686 -68.51653,-11.9859 -130.95313,-35.9191 -184.78508,-66.1547 -61.98834,-34.8054 -112.80737,-78.0491 -152.24276,-123.0481 0,0 -5e-5,-10e-5 -5e-5,-10e-5 C 180.98274,998.76993 149.07238,939.45321 128.99228,888.70428 104.80601,827.59308 96.246086,775.28003 93.078263,743.33333 89.640741,708.66678 91.672916,696.72529 92.63993,699.4428 c 1.386265,3.89719 3.169732,22.969 9.30946,54.8001 6.0219,31.22024 17.08343,77.07127 39.75002,129.18814 21.29155,48.94341 53.88142,105.73352 102.84468,159.24016 39.06418,42.7053 88.88916,83.4724 149.00098,116.0078 52.30594,28.3008 112.56867,50.4283 178.12861,61.0833 59.56959,9.6969 123.39456,9.8516 187.91946,-1.4839 59.97719,-10.5474 120.44528,-31.0443 176.88468,-62.5865 53.4582,-29.8559 103.19028,-69.5889 145.86668,-117.6834 40.8484,-46.05229 75.147,-99.71268 99.3911,-158.72601 20.3929,-49.61457 33.8892,-102.88278 39.3249,-157.64365 4.5029,-45.22679 3.2013,-91.42899 -3.7693,-137.25034 -4.6674,-30.68154 -11.8148,-60.78377 -21.2057,-89.90552 C 1171.9659,419.77671 1133.1698,351.69729 1083.5493,295.5095 1031.3928,236.38442 967.4975,190.57508 899.94913,159.02826 827.47566,125.2108 750.94035,107.76258 677.12563,105.85575 c 0,0 -1.2e-4,3e-5 -1.2e-4,3e-5 -80.95383,-2.13138 -158.2802,14.30858 -225.73004,41.56828 -77.29538,31.26411 -142.09938,76.85444 -191.74576,127.34063 -62.04948,63.05146 -101.16326,133.7202 -124.79276,194.52226 -28.16453,72.5087 -36.303991,135.47348 -39.29642,174.3126 -3.076075,39.92476 -2.167144,59.24966 -3.893397,54.34789 z"
       id="path66"
       inkscape:path-effect="#path-effect68;#path-effect70"
       inkscape:original-d="M 92.153022,698.6958 C -275.70035,636.57661 854.87444,715.00269 1236.2306,723.15139 1617.587,731.30015 1209.216,831.08292 1195.7041,885.04391 1182.1923,939.00494 92.153022,698.6958 92.153022,698.6958 Z" />
    <path
       style="fill:none;stroke:#000000;stroke-width:1px;stroke-linecap:butt;stroke-linejoin:miter;stroke-opacity:1"
       d="m 332.44593,444.12991 670.34757,-2.90479 -312.81833,261.71559 c 0,0 -19.27032,22.41242 -45.24886,-1.22457 C 618.74778,678.07915 332.44593,444.12991 332.44593,444.12991 Z"
       id="path112" />
    <path
       style="fill:none;stroke:#000000;stroke-width:1px;stroke-linecap:butt;stroke-linejoin:miter;stroke-opacity:1"
       d="M 327.82611,854.5307 558.18392,667.2574 331.74979,479.07279 Z"
       id="path114" />
    <path
       style="fill:none;stroke:#000000;stroke-width:1px;stroke-linecap:butt;stroke-linejoin:miter;stroke-opacity:1"
       d="m 752.51549,687.11341 c -1.26416,-0.60411 251.37941,201.09008 251.37941,201.09008 0,0 1.555,4.11805 -2.0361,4.1684 -3.59116,0.0503 -383.37874,0.59404 -383.37874,0.59404 L 331.85639,892.7682 c 0,0 -6.54459,-0.76521 1.86828,-7.7931 8.41288,-7.02788 248.03436,-199.95167 248.03436,-199.95167 l 56.55556,43.90886 c 0,0 34.6321,21.83606 66.39323,-3.22165 29.44358,-23.2293 47.80767,-38.59723 47.80767,-38.59723 z"
       id="path118"
       sodipodi:nodetypes="ccsccsccsc" />
    <path
       style="fill:none;stroke:#000000;stroke-width:1px;stroke-linecap:butt;stroke-linejoin:miter;stroke-opacity:1"
       d="M 1003.8411,858.78603 773.48334,671.51273 999.91741,483.32812 Z"
       id="path114-8" />
    <path
       style="fill:#009d47;fill-opacity:1;stroke:#260000;stroke-width:9.1447;stroke-opacity:1"
       d="M 614.48111,1221.1679 C 549.16188,1213.1875 508.00668,1203.3832 459.76957,1184.3113 283.97194,1114.8048 157.81788,969.60133 111.5688,783.53177 103.46194,750.91622 95.409785,702.68364 95.418155,686.78912 c 0.0092,-17.54669 2.868418,-55.64666 5.933835,-79.07131 22.78353,-174.10234 116.9475,-324.42272 260.16921,-415.32589 69.40027,-44.04851 148.33564,-72.55775 234.54131,-84.70973 26.43046,-3.72577 102.32889,-4.26317 128.93023,-0.91289 177.47041,22.35134 329.31506,119.6239 418.67296,268.20433 39.1195,65.04631 64.7022,139.6449 76.4343,222.8808 4.1435,29.39702 4.1467,106.21702 0.01,134.60757 -19.1387,131.21123 -71.7832,237.70576 -161.8216,327.3488 -77.87751,77.5356 -175.72492,129.9631 -282.61667,151.4283 -42.21354,8.477 -54.13362,9.6184 -105.93034,10.1438 -27.16744,0.2756 -52.03256,0.1788 -55.25581,-0.215 z M 1006.295,887.35739 c 0,-2.41044 -34.94969,-31.30345 -125.85585,-104.04529 -105.49577,-84.41623 -126.31896,-100.41893 -128.71827,-98.92055 -1.5743,0.98317 -13.25746,10.1811 -25.96258,20.43988 -30.46062,24.59545 -36.20151,27.55638 -53.50975,27.5982 -9.07409,0.0219 -15.97673,-0.96356 -21.39729,-3.05486 -4.50604,-1.73846 -20.59957,-12.88036 -36.83721,-25.50318 -15.85939,-12.32878 -29.72845,-22.43023 -30.82012,-22.44766 -1.09165,-0.0174 -10.13351,6.58962 -20.09302,14.68234 -9.95949,8.09272 -66.5198,53.72573 -125.68956,101.40668 -75.48479,60.82812 -107.5814,87.66062 -107.5814,89.93712 0,3.199 4.74242,3.24449 338.23256,3.24449 336.72199,0 338.23249,-0.0151 338.23249,-3.33717 z m -0.5737,-121.82562 c -0.5965,-50.42093 -1.5794,-135.58973 -2.1842,-189.26402 -0.6049,-53.67428 -1.7236,-97.3766 -2.486,-97.11628 -3.29398,1.12477 -227.28682,188.1511 -226.92444,189.47414 0.51412,1.87704 229.14994,188.25353 231.16794,188.44053 0.8939,0.0829 1.0682,-37.30704 0.4267,-91.53437 z m -554.496,-11.23609 c 59.86046,-48.62632 109.0618,-88.98667 109.3363,-89.68966 0.27452,-0.70299 -50.96269,-44.03261 -113.86046,-96.28805 l -114.35956,-95.00987 -1.02917,71.8095 c -0.56603,39.49523 -1.58202,125.27032 -2.25773,190.61131 l -1.22857,118.80179 7.28099,-5.91175 c 4.00454,-3.25147 56.25773,-45.69695 116.1182,-94.32327 z m 235.60811,-48.66026 c 2.40267,-1.82212 72.81561,-60.59331 156.47321,-130.60262 83.65761,-70.00932 154.51187,-129.15816 157.45398,-131.44187 2.942,-2.2837 5.3908,-4.74856 5.4418,-5.47745 0.099,-1.41676 -512.44161,0.21846 -614.04595,1.95907 l -60.74327,1.04061 25.58048,20.87299 c 73.03003,59.59053 190.9446,156.64479 238.98161,196.70329 29.88226,24.9191 56.6311,46.63593 59.44186,48.25963 7.0847,4.09265 25.29136,3.33134 31.41628,-1.31365 z"
       id="path135" />
    <path
       style="fill:#ffffff;stroke-width:0.599999;stroke-linecap:round;stroke-linejoin:round;paint-order:markers fill stroke"
       d="m 642.82409,689.79859 c -9.44749,-7.657 -54.52366,-44.7663 -100.16925,-82.46512 -45.6456,-37.6988 -108.3052,-89.26421 -139.24357,-114.58979 -30.93836,-25.32558 -55.98353,-46.32007 -55.65592,-46.65441 0.72865,-0.74364 638.15326,-3.93452 641.8984,-3.21327 1.57799,0.30389 -59.21629,52.14632 -148.85583,126.93708 -83.33774,69.53286 -153.6969,128.10729 -156.35365,130.16537 -3.73993,2.8972 -7.04431,3.74197 -14.63669,3.74197 -9.79512,0 -9.82573,-0.0151 -26.98349,-13.92183 z"
       id="path838" />
    <path
       style="fill:#ffffff;stroke-width:0.599999;stroke-linecap:round;stroke-linejoin:round;paint-order:markers fill stroke"
       d="m 347.69334,878.47275 c 13.26417,-11.77452 113.50153,-93.2197 215.81871,-175.35772 10.03054,-8.05229 19.15411,-14.28872 20.27463,-13.85874 1.12052,0.42999 14.14648,10.18229 28.94656,21.6718 14.99206,11.63853 30.48403,22.26907 34.98119,24.00396 5.73081,2.21081 12.44265,3.1113 23.1417,3.10481 13.30023,-0.008 16.19965,-0.58035 24.69203,-4.87359 5.29225,-2.67544 20.324,-13.35279 33.40388,-23.72743 l 23.7816,-18.863 5.10775,3.60467 c 5.27382,3.72186 225.90474,179.95077 233.55558,186.55247 l 4.29637,3.70721 -327.34884,-0.01 -327.34884,-0.01 6.69768,-5.94549 z"
       id="path840" />
    <path
       style="fill:#ffffff;stroke-width:0.599999;stroke-linecap:round;stroke-linejoin:round;paint-order:markers fill stroke"
       d="m 948.80962,804.7526 c -26.70698,-21.69723 -73.01492,-59.5219 -102.90653,-84.05481 -29.89162,-24.5329 -56.48938,-45.93548 -59.10614,-47.56129 -2.61676,-1.62581 -4.34346,-3.62636 -3.83711,-4.44563 2.5367,-4.10447 211.80922,-178.26682 212.89718,-177.17887 2.52646,2.52646 5.27458,352.94408 2.76655,352.77484 -0.69069,-0.0465 -23.10697,-17.83701 -49.81395,-39.53424 z"
       id="path842" />
    <path
       style="fill:#ffffff;stroke-width:0.599999;stroke-linecap:round;stroke-linejoin:round;paint-order:markers fill stroke"
       d="m 334.35189,742.8938 c 0.67503,-55.1593 1.69255,-135.53545 2.26114,-178.61364 l 1.0338,-78.32399 102.27237,85.02166 c 56.24981,46.76192 104.53216,86.93633 107.29411,89.27648 l 5.02175,4.25483 -41.87512,34.2568 c -23.03132,18.84124 -62.64855,51.13821 -88.0383,71.77105 -25.38975,20.63284 -55.84581,45.41901 -67.68014,55.08035 l -21.51695,17.56611 z"
       id="path844" />
  </g>
</svg>
